# xmcd
#
# Track frame offsets:
#       182
#       13915
#       29717
#       43462
#       67420
#       86737
#       96005
#       111705
#       123990
#       139667
#       183550
#       196680
#       210350
#       227360
#       248837
#       271197
#       288907
#       303535
#       321080
#
# Disc length: 4675 seconds
#
# Revision: 2
# Processed by: cddbd v1.4PL0 Copyright (c) Steve Scherf et al.
# Submitted via: WhereIsIt 3.26
#
DISCID=1e124113
DTITLE=The Outlaws - Outlaws and Lady In Waiting - Remaster - France
DYEAR=1900
DGENRE=Country
TTITLE0=There Goes Another Love Song
TTITLE1=Song For You
TTITLE2=Song In The Breeze
TTITLE3=It Follows From Your Heart
TTITLE4=Cry No More
TTITLE5=Waterhole
TTITLE6=Stay With Me
TTITLE7=Keep Prayin'
TTITLE8=Knoxville Girl
TTITLE9=Green Grass and High Tides
TTITLE10=Breaker Breaker
TTITLE11=South Carolina
TTITLE12=Ain't So Bad
TTITLE13=Freeborn Man
TTITLE14=Girl From Ohio
TTITLE15=Lover Boy
TTITLE16=Just For You
TTITLE17=Prisoner
TTITLE18=Stick Around For Rock And Roll
EXTD=
EXTT0=
EXTT1=
EXTT2=
EXTT3=
EXTT4=
EXTT5=
EXTT6=
EXTT7=
EXTT8=
EXTT9=
EXTT10=
EXTT11=
EXTT12=
EXTT13=
EXTT14=
EXTT15=
EXTT16=
EXTT17=
EXTT18=
PLAYORDER=
